# xmcd
#
# Track frame offsets: 
#        150
#        21643
#        39741
#        59287
#        80642
#        96909
#        114684
#        132721
#        151002
#        171788
#        189396
#        207266
#        229007
#        247355
#        266200
#        277412
#        291485
#        322238
#
# Disc length: 4566 seconds
#
# Revision: 2
# Processed by: cddbd v1.5.2PL0 Copyright (c) Steve Scherf et al.
# Submitted via: ExactAudioCopy v1.1
#
DISCID=2911d412
DTITLE=Various Artist - Kuschelrock 21 [CD2)
DYEAR=2007
DGENRE=Pop, Rock
TTITLE0=Ozzy Osbourne - Dreamer
TTITLE1=Elton John - Your Song
TTITLE2=a-ha - Velvet
TTITLE3=R.E.M. - Leaving New York
TTITLE4=Nickelback - If Everyone Cared
TTITLE5=Incubus - Love Hurts
TTITLE6=Avril Lavigne - When You're Gone
TTITLE7=Silbermond - Symphonie
TTITLE8=K.D. Lang - Constant Craving
TTITLE9=Daniel Powter - Bad Day
TTITLE10=Kelly Clarkson - Breakaway
TTITLE11=Goo Goo Dolls - Iris
TTITLE12=Beautiful South - Song For Whoever
TTITLE13=Paul Young - Wherever I Lay My Hat (That's My Home)
TTITLE14=Simon and Garfunkel - Homeward Bound
TTITLE15=Elvis Presley - Are You Lonesome Tonight?
TTITLE16=Prince - Sometimes It Snows In April
TTITLE17=Madonna - Secret
EXTD=
EXTT0=
EXTT1=
EXTT2=
EXTT3=
EXTT4=
EXTT5=
EXTT6=
EXTT7=
EXTT8=
EXTT9=
EXTT10=
EXTT11=
EXTT12=
EXTT13=
EXTT14=
EXTT15=
EXTT16=
EXTT17=
PLAYORDER=
